<!--?xml version="1.0" encoding="utf-8"?-->
<!-- Generator: Adobe Illustrator 19.1.1, SVG Export Plug-In . SVG Version: 6.00 Build 0)  -->
<svg version="1.1" id="_x31_0" xmlns="http://www.w3.org/2000/svg" xmlns:xlink="http://www.w3.org/1999/xlink" x="0px" y="0px" viewBox="0 0 512 512" style="width: 32px; height: 32px; opacity: 1;" xml:space="preserve">
<style type="text/css">
	.st0{fill:#374149;}
</style>
<g>
	<path class="st0" d="M359.714,45.625V0.297V0.156l0,0V0H7.402H6.328l0,0H6.164v448.699h69.641l11.125,0.027l-1.164,7.375
		L434.867,512l70.969-443.016L359.714,45.625z M325.465,40.074v34.664v85.012v87.136v18.364v40.687v18.086v90.309v0.118h-198.39
		h-34.66H40.418V34.25h112.895h135.57h36.582V40.074z M406.434,472.746l-150.16-24.047h102.969l0.312,0.004v-0.004h0.16V345.992
		l0.028-16.484l20.183,3.214l2.809-17.606l-23.02-3.699v-35.152l0.028-5.535l29.363,4.722l16.442-102.894l-45.833-7.328V91.938
		l0.028-11.719l106.839,17.126l-60.003,374.511L406.434,472.746z" style="fill: rgb(110, 110, 110);"></path>
	<polygon class="st0" points="154.539,132.633 168.863,118.328 168.703,118.328 168.863,118.168 139.816,118.168 80.082,118.168 
		80.082,207.774 134.27,153.106 	" style="fill: rgb(110, 110, 110);"></polygon>
	<polygon class="st0" points="108.699,208.086 94.535,222.203 94.695,222.203 94.535,222.363 123.172,222.363 157.836,222.363 
		183.386,222.363 183.386,169.973 183.5,132.805 183.386,132.918 183.386,132.691 170.027,146.117 128.718,187.906 	" style="fill: rgb(110, 110, 110);"></polygon>
	<rect x="214.211" y="118.168" class="st0" width="71.59" height="18.086" style="fill: rgb(110, 110, 110);"></rect>
	<polygon class="st0" points="214.211,161.187 214.211,176.465 214.211,179.274 285.801,179.274 285.801,161.187 216.68,161.187 	
		" style="fill: rgb(110, 110, 110);"></polygon>
	<polygon class="st0" points="265.043,204.211 214.683,204.211 214.375,204.211 214.375,204.211 214.211,204.211 214.211,222.363 
		265.043,222.363 	" style="fill: rgb(110, 110, 110);"></polygon>
	<polygon class="st0" points="116.73,262.508 80.465,262.508 80.242,262.508 80.242,262.508 80.082,262.508 80.082,280.317 
		113.922,280.317 148.586,280.317 285.801,280.317 285.801,262.508 151.394,262.508 	" style="fill: rgb(110, 110, 110);"></polygon>
	<polygon class="st0" points="108.714,312.789 80.328,312.789 80.242,312.789 80.242,312.789 80.082,312.789 80.082,330.602 
		105.84,330.602 140.504,330.602 214.211,330.602 214.211,312.789 143.379,312.789 	" style="fill: rgb(110, 110, 110);"></polygon>
</g>
</svg>
