<svg xmlns="http://www.w3.org/2000/svg" xmlns:xlink="http://www.w3.org/1999/xlink" width="990px" height="500px" viewBox="0 0 990 500" preserveAspectRatio="xMidYMid meet"  ><defs id="svgEditorDefs"><polygon id="svgEditorShapeDefs" fill="gray" stroke="black" style="vector-effect: non-scaling-stroke; stroke-width: 1px;"/></defs><rect id="svgEditorBackground" x="0" y="0" width="990" height="500" style="fill: none; stroke: none;"/><path d="M-106.8222427368164,274.6203918457031c14.058998107910156,14.058998107910156,36.853004455566406,14.058998107910156,50.91100311279297,0s14.059005737304688,-36.853004455566406,0,-50.91100311279297l-56,-56c-14.058998107910156,-14.059000015258789,-36.85200119018555,-14.059000015258789,-50.9109992980957,0s-14.059000015258789,36.85200119018555,0,50.9109992980957l56.000003814697266,55.999996185302734ZM-89.36624908447266,201.16384887695312l27.798995971679688,28.201004028320312c10.933998107910156,10.93499755859375,10.933998107910156,28.663002014160156,0,39.597999572753906s-28.663002014160156,10.93499755859375,-39.597999572753906,0l-28.201000213623047,-27.79900360107422l40.000003814697266,-40Z" transform="matrix(0.61719 0 0 0.61719 587 251)" stroke="black" id="e1_shape" style="vector-effect: non-scaling-stroke; stroke-width: 1px;" fill="gray"/><path d="M-77.3750228881836,128.98956298828125h-22.222000122070312v-14.222000122070312c0,-5.400000095367432,-4.377998352050781,-9.777999877929688,-9.777999877929688,-9.777999877929688h-44.444000244140625c-5.400001525878906,0,-9.777999877929688,4.377999782562256,-9.777999877929688,9.777999877929688v14.222000122070312h-22.222000122070312c-5.400000095367432,0,-9.777999877929688,4.378000259399414,-9.777999877929688,9.777999877929688v76.44499969482422c0,5.400001525878906,4.377999782562256,9.777999877929688,9.777999877929688,9.777999877929688h108.44499969482422c5.400001525878906,0,9.778007507324219,-4.377998352050781,9.778007507324219,-9.777999877929688v-76.44499969482422c0,-5.399999618530273,-4.377998352050781,-9.777999877929688,-9.777999877929688,-9.777999877929688ZM-107.59703063964844,184.9895782470703h-16v16h-16v-16h-16v-16h16v-16h16v16h16v16ZM-107.59703063964844,128.98956298828125h-48v-16h48v16Z" transform="matrix(0.695307 0 0 0.695307 707 266)" stroke="black" id="e36_shape" style="vector-effect: non-scaling-stroke; stroke-width: 1px;" fill="gray"/><g transform="matrix(0.773438 0 0 0.773438 72 136.438)" stroke="black" id="e89_shape" style="vector-effect: non-scaling-stroke; stroke-width: 1px;" fill="gray"/><g transform="matrix(0.952285 0 0 0.952285 759.048 282.415)" stroke="black" id="e216_shape" style="vector-effect: non-scaling-stroke; stroke-width: 1px;" fill="gray"><path d="M128 40c-3.559-4.725-11.165-8-20-8-6.974 0-13.172 2.045-17.228 5.228 3.183-4.056 5.228-10.254 5.228-17.229 0-8.835-3.275-16.441-8-20-4.725 3.559-8 11.165-8 20s3.275 16.441 8 20c0 0 0 0 0 0s0 0 0 0c3.559 4.725 11.165 8 20 8s16.44-3.275 20-8z"/><path d="M11.833 127.004l73.233-44.808c9.436-5.082 11.307-17.823 3.728-25.401l-17.587-17.588c-7.579-7.579-20.32-5.709-25.401 3.728l-44.809 73.233c-3.763 6.987 3.849 14.599 10.836 10.837z"/></g><g transform="matrix(1.03125 0 0 1.03125 285 328)" stroke="black" id="e242_shape" style="vector-effect: non-scaling-stroke; stroke-width: 1px;" fill="gray"/><g transform="matrix(0.703125 0 0 0.703125 67.75 61)" stroke="black" id="e268_shape" style="vector-effect: non-scaling-stroke; stroke-width: 1px;" fill="gray"><path d="M40 0c-4.419 0-8 3.581-8 8v40h16v-40c0-4.419-3.581-8-8-8z"/><path d="M88 0c-4.419 0-8 3.581-8 8v40h16v-40c0-4.419-3.581-8-8-8z"/><path d="M16,80c0,26.509002685546875,21.490997314453125,48,48,48s48,-21.490997314453125,48,-48v-24h-96v24Z"/></g><path d="M84.02302551269531,-22.545455932617188c-8.763999938964844,0,-16.797996520996094,3.0909996032714844,-23.09400177001953,8.232002258300781c2.1729965209960938,-12.878000259399414,14.36199951171875,-25.253000259399414,14.494003295898438,-25.386999130249023c1.5630035400390625,-1.5620002746582031,1.5630035400390625,-4.093999862670898,0,-5.6570000648498535c-1.5609970092773438,-1.562000036239624,-4.095001220703125,-1.562000036239624,-5.655998229980469,0c-0.6569976210594177,0.6570001244544983,-15.123001098632812,15.30099868774414,-16.975997924804688,31.486000061035156c-6.3730010986328125,-5.405000686645508,-14.612998962402344,-8.674999237060547,-23.625,-8.674999237060547c-20.197999954223633,0,-36.571998596191406,16.372997283935547,-36.571998596191406,36.571998596191406c0,5.372997283935547,1.1749999523162842,10.465999603271484,3.256999969482422,15.06100082397461l14.744998931884766,35.808998107910156c1.2999992370605469,3.1800003051757812,3.2259998321533203,6.1660003662109375,5.808000564575195,8.749000549316406c10.413999557495117,10.41400146484375,27.299001693725586,10.41400146484375,37.712005615234375,0c0.9070016145706177,-0.9069976210594177,1.7290000915527344,-1.8639984130859375,2.477001190185547,-2.8610000610351562c0.7489967942237854,0.9960022568702698,1.5710029602050781,1.9540023803710938,2.477001190185547,2.8610000610351562c10.41400146484375,10.41400146484375,27.29900360107422,10.41400146484375,37.711997985839844,0c2.5830001831054688,-2.5830001831054688,4.508003234863281,-5.568000793457031,5.8079986572265625,-8.749000549316406l0.0019989011343568563,0.003997802734375l14.742996215820312,-35.81299591064453c2.0839996337890625,-4.595001220703125,3.259002685546875,-9.688003540039062,3.259002685546875,-15.060001373291016c0,-20.198001861572266,-16.373001098632812,-36.571998596191406,-36.571998596191406,-36.571998596191406ZM56.59505081176758,38.79153823852539c-0.07799912244081497,-0.10500336438417435,-0.16099929809570312,-0.207000732421875,-0.24100114405155182,-0.31099700927734375c0.082000732421875,-0.0910034254193306,0.15999986231327057,-0.18599702417850494,0.24100114405155182,-0.2779998779296875v0.5889968276023865Z" transform="matrix(0.795394 0 0 0.795394 838.031 377.48)" stroke="black" id="e294_shape" style="vector-effect: non-scaling-stroke; stroke-width: 1px;" fill="gray"/><path d="M43.96261978149414,73.19625854492188h32v56l32,-72h-32v-56Z" transform="matrix(0.835937 0 0 0.835937 51.25 153)" stroke="black" id="e664_shape" style="vector-effect: non-scaling-stroke; stroke-width: 1px;" fill="gray"/><path d="M-11.555543899536133,-82.05290222167969h108.44499969482422c5.400001525878906,0,9.778007507324219,-4.377998352050781,9.778007507324219,-9.777999877929688v-84.44499969482422c0,-5.399993896484375,-4.377998352050781,-9.777999877929688,-9.777999877929688,-9.777999877929688h-46.22200012207031v-14.222000122070312c0,-5.399993896484375,-4.377998352050781,-9.777999877929688,-9.777999877929688,-9.777999877929688h-52.444000244140625c-5.400001525878906,0,-9.777999877929688,4.3780059814453125,-9.777999877929688,9.777999877929688v108.44499969482422c0,5.400001525878906,4.377998352050781,9.777999877929688,9.777999877929688,9.777999877929688ZM82.66649627685547,-170.05303955078125h8v16h-8v-16ZM82.66649627685547,-146.05303955078125h8v16h-8v-16ZM66.66647338867188,-170.05303955078125h8v16h-8v-16ZM66.66647338867188,-146.05303955078125h8v16h-8v-16ZM50.66646957397461,-170.05303955078125h8v16h-8v-16ZM50.66646957397461,-146.05303955078125h8v16h-8v-16ZM26.666494369506836,-194.05303955078125h8v16h-8v-16ZM26.666494369506836,-170.05303955078125h8v16h-8v-16ZM26.666494369506836,-146.05303955078125h8v16h-8v-16ZM10.666489601135254,-194.05303955078125h8v16h-8v-16ZM10.666489601135254,-170.05303955078125h8v16h-8v-16ZM10.666489601135254,-146.05303955078125h8v16h-8v-16ZM-5.33353328704834,-194.05303955078125h8v16h-8v-16ZM-5.33353328704834,-170.05303955078125h8v16h-8v-16ZM-5.33353328704834,-146.05303955078125h8v16h-8v-16Z" transform="matrix(1.21874 0 0 1.21874 86.9988 563.001)" stroke="black" id="e779_shape" style="vector-effect: non-scaling-stroke; stroke-width: 1px;" fill="gray"/><g transform="matrix(1.17187 0 0 1.17187 275.001 314)" stroke="black" id="e884_shape" style="vector-effect: non-scaling-stroke; stroke-width: 1px;" fill="gray"><path d="M118.22200012207031,0h-108.44499969482422c-5.400000095367432,0,-9.777999877929688,4.377999782562256,-9.777999877929688,9.777999877929688v108.44499969482422c0,5.400001525878906,4.377999782562256,9.778007507324219,9.777999877929688,9.778007507324219h108.44499969482422c5.400001525878906,0,9.777999877929688,-4.377998352050781,9.777999877929688,-9.777999877929688v-108.44499969482422c0,-5.400000095367432,-4.377998352050781,-9.777999877929688,-9.777999877929688,-9.777999877929688ZM120,88l-32,-32l-32,32l-16,-16l-32,32v-96h112v80Z"/><path d="M56 40c0 8.837-7.163 16-16 16s-16-7.163-16-16c0-8.837 7.163-16 16-16s16 7.163 16 16z"/></g><g transform="matrix(1.04687 0 0 1.04687 779.001 91)" stroke="black" id="e973_shape" style="vector-effect: non-scaling-stroke; stroke-width: 1px;" fill="gray"><path d="M64 52c0 6.627-5.373 12-12 12s-12-5.373-12-12c0-6.627 5.373-12 12-12s12 5.373 12 12z"/><path d="M126.1 88h-6.093c-0.781 0-1.459-0.499-1.734-1.23-0.009-0.023-0.017-0.045-0.026-0.069-0.27-0.712-0.121-1.514 0.417-2.052l4.276-4.276c0.741-0.741 0.741-1.945 0-2.686l-8.627-8.627c-0.741-0.741-1.945-0.741-2.686 0l-4.276 4.276c-0.539 0.539-1.341 0.687-2.052 0.417-0.023-0.009-0.045-0.018-0.069-0.026-0.731-0.275-1.23-0.954-1.23-1.734v-6.093c0-1.049-0.851-1.9-1.9-1.9h-12.202c-1.047 0.001-1.898 0.852-1.898 1.9v6.168c0 0.766-0.461 1.454-1.168 1.749-0.008 0.004-0.016 0.006-0.023 0.010-0.711 0.298-1.529 0.139-2.074-0.406l-4.362-4.362c-0.217-0.217-0.475-0.363-0.748-0.453-0.039-0.013-0.077-0.024-0.117-0.035-0.156-0.041-0.316-0.069-0.477-0.069-0.001 0-0.001 0-0.002 0s-0.002 0-0.002 0c-0.161 0-0.32 0.028-0.477 0.069-0.040 0.010-0.077 0.021-0.117 0.035-0.273 0.090-0.531 0.236-0.748 0.453l-8.627 8.627c-0.741 0.741-0.741 1.945 0 2.686l4.362 4.362c0.545 0.545 0.703 1.364 0.406 2.074-0.004 0.008-0.006 0.016-0.010 0.023-0.296 0.707-0.984 1.169-1.75 1.169h-6.168c-1.049 0-1.9 0.851-1.9 1.9v12.202c0 1.049 0.851 1.9 1.9 1.9h6.093c0.781 0 1.459 0.499 1.734 1.23 0.009 0.023 0.017 0.045 0.026 0.069 0.27 0.712 0.121 1.514-0.417 2.052l-4.276 4.276c-0.741 0.741-0.741 1.945 0 2.686l8.627 8.627c0.741 0.741 1.945 0.741 2.686 0l4.276-4.276c0.539-0.539 1.341-0.687 2.052-0.417 0.023 0.009 0.045 0.018 0.069 0.026 0.731 0.275 1.23 0.954 1.23 1.734v6.093c0 1.049 0.851 1.899 1.9 1.899h12.202c1.049 0 1.9-0.851 1.9-1.9v-6.168c0-0.766 0.461-1.454 1.168-1.749 0.008-0.004 0.016-0.006 0.023-0.010 0.711-0.298 1.529-0.139 2.074 0.406l4.362 4.362c0.741 0.741 1.945 0.741 2.686 0l8.627-8.627c0.741-0.741 0.741-1.945 0-2.686l-4.362-4.362c-0.545-0.545-0.703-1.364-0.406-2.074 0.004-0.008 0.006-0.016 0.010-0.023 0.295-0.707 0.983-1.168 1.749-1.168h6.168c1.049 0 1.9-0.851 1.9-1.9v-12.202c-0.001-1.051-0.852-1.901-1.9-1.901zM79.625 68.606c-0.038-0.013-0.076-0.024-0.115-0.034 0.039 0.010 0.076 0.020 0.115 0.034zM78.549 68.573c-0.038 0.010-0.077 0.021-0.115 0.034 0.039-0.013 0.076-0.024 0.115-0.034zM96 112c-8.837 0-16-7.163-16-16s7.163-16 16-16 16 7.163 16 16-7.163 16-16 16z"/><path d="M104 96c0 4.418-3.582 8-8 8s-8-3.582-8-8c0-4.418 3.582-8 8-8s8 3.582 8 8z"/><path d="M2.8489999771118164,64h13.25300121307373c1.1539993286132812,0,2.1889991760253906,0.6989974975585938,2.628000259399414,1.7649993896484375c0.0049991607666015625,0.0110015869140625,0.010000228881835938,0.02300262451171875,0.01399993896484375,0.035003662109375c0.4389991760253906,1.0630035400390625,0.20000076293945312,2.28399658203125,-0.6140003204345703,3.0979995727539062l-9.371000289916992,9.371002197265625c-1.1119999885559082,1.11199951171875,-1.1119999885559082,2.9160003662109375,0,4.0279998779296875l12.941999435424805,12.942001342773438c1.11199951171875,1.11199951171875,2.9160003662109375,1.11199951171875,4.028999328613281,0l9.37099838256836,-9.371002197265625c0.8139991760253906,-0.8140029907226562,2.0349998474121094,-1.0530014038085938,3.0979995727539062,-0.6139984130859375c0.0110015869140625,0.003997802734375,0.022998809814453125,0.01000213623046875,0.034999847412109375,0.01399993896484375c1.0670013427734375,0.43900299072265625,1.7649993896484375,1.4749984741210938,1.7649993896484375,2.628997802734375v13.252998352050781c0,1.572998046875,1.2760009765625,2.8489990234375,2.8489990234375,2.8489990234375h13.354999542236328c-0.12099838256835938,-0.6169967651367188,-0.2050018310546875,-1.2470016479492188,-0.2050018310546875,-1.9000015258789062v-12.201995849609375c0,-3.5940017700195312,1.9249992370605469,-6.746002197265625,4.797000885009766,-8.481002807617188c-0.2220001220703125,-0.9000015258789062,-0.3040008544921875,-1.8239974975585938,-0.2709999084472656,-2.7450027465820312c-2.6889991760253906,0.8590011596679688,-5.553001403808594,1.3270034790039062,-8.5260009765625,1.3270034790039062c-15.464000701904297,0,-28,-12.536003112792969,-28,-28s12.535999298095703,-28,28,-28s28,12.535999298095703,28,28c0,2.9710006713867188,-0.46700286865234375,5.833000183105469,-1.3249969482421875,8.520000457763672c0.1179962158203125,-0.005001068115234375,0.2350006103515625,-0.018001556396484375,0.35399627685546875,-0.018001556396484375c0.8170013427734375,0,1.6200027465820312,0.09799957275390625,2.391998291015625,0.28900146484375c1.7360000610351562,-2.868000030517578,4.887001037597656,-4.7910003662109375,8.477996826171875,-4.7910003662109375h12.201995849609375c0.6510009765625,0,1.2819976806640625,0.0839996337890625,1.9000015258789062,0.2050018310546875v-13.354999542236328c0,-1.5730018615722656,-1.2750015258789062,-2.8489990234375,-2.8489990234375,-2.8489990234375h-13.252998352050781c-1.1539993286132812,0,-2.1890029907226562,-0.6990013122558594,-2.628997802734375,-1.7649993896484375c-0.003997802734375,-0.0110015869140625,-0.01000213623046875,-0.022998809814453125,-0.01399993896484375,-0.034999847412109375c-0.43900299072265625,-1.0629997253417969,-0.1999969482421875,-2.2849998474121094,0.6139984130859375,-3.0979995727539062l9.371002197265625,-9.371000289916992c1.11199951171875,-1.11199951171875,1.11199951171875,-2.9160003662109375,0,-4.028999328613281l-12.942001342773438,-12.942000389099121c-1.11199951171875,-1.1119999885559082,-2.9160003662109375,-1.1119999885559082,-4.0279998779296875,0l-9.373001098632812,9.370999336242676c-0.8140029907226562,0.8139991760253906,-2.035003662109375,1.052999496459961,-3.0979995727539062,0.6140003204345703c-0.0110015869140625,-0.0049991607666015625,-0.02300262451171875,-0.010000228881835938,-0.035003662109375,-0.01399993896484375c-1.0670013427734375,-0.4389991760253906,-1.7649993896484375,-1.4750003814697266,-1.7649993896484375,-2.628000259399414v-13.253000259399414c0,-1.5729999542236328,-1.2760009765625,-2.8489999771118164,-2.8489990234375,-2.8489999771118164h-18.302001953125c-1.572998046875,0,-2.8489990234375,1.2760000228881836,-2.8489990234375,2.8489999771118164v13.253000259399414c0,1.1539993286132812,-0.6990013122558594,2.1889991760253906,-1.7649993896484375,2.628000259399414c-0.0110015869140625,0.0049991607666015625,-0.022998809814453125,0.010000228881835938,-0.034999847412109375,0.01399993896484375c-1.0629997253417969,0.4389991760253906,-2.2849998474121094,0.20000076293945312,-3.0979995727539062,-0.6140003204345703l-9.371000289916992,-9.371000289916992c-1.11199951171875,-1.1119999885559082,-2.9160003662109375,-1.1119999885559082,-4.028999328613281,0l-12.942000389099121,12.941999435424805c-1.1119999885559082,1.11199951171875,-1.1119999885559082,2.9160003662109375,0,4.028999328613281l9.370999336242676,9.371002197265625c0.8139991760253906,0.8139991760253906,1.052999496459961,2.0349998474121094,0.6140003204345703,3.0979995727539062c-0.0049991607666015625,0.0110015869140625,-0.010000228881835938,0.022998809814453125,-0.01399993896484375,0.034999847412109375c-0.4389991760253906,1.0670013427734375,-1.4750003814697266,1.7649993896484375,-2.628000259399414,1.7649993896484375h-13.253000259399414c-1.5729999542236328,0,-2.8489999771118164,1.2760009765625,-2.8489999771118164,2.8489990234375v18.301998138427734c0,1.572998046875,1.2760000228881836,2.8489990234375,2.8489999771118164,2.8489990234375Z"/></g><path d="M-104.36299896240234,95.84707641601562h38.22200012207031v16h-8.080001831054688c-4.374000549316406,0,-7.920000076293945,3.5459976196289062,-7.920000076293945,7.9199981689453125v0.0800018310546875h64v-0.0800018310546875c0,-4.374000549316406,-3.5459976196289062,-7.9199981689453125,-7.9199981689453125,-7.9199981689453125h-8.080001831054688v-16h38.22200012207031c5.400001525878906,0,9.777999877929688,-4.377998352050781,9.777999877929688,-9.777999877929688v-76.44499969482422c0,-5.399999618530273,-4.377998352050781,-9.777999877929688,-9.777999877929688,-9.777999877929688h-108.44499969482422c-5.400000095367432,0,-9.777999877929688,4.378000259399414,-9.777999877929688,9.777999877929688v76.44499969482422c0,5.400001525878906,4.377999782562256,9.777999877929688,9.777999877929688,9.777999877929688ZM-106.14099884033203,7.8470683097839355h112v80h-112v-80Z" transform="matrix(1.22655 0 0 1.22655 414.784 74.8537)" stroke="black" id="e1574_shape" style="vector-effect: non-scaling-stroke; stroke-width: 1px;" fill="gray"/><g transform="matrix(1.08593 0 0 1.08593 498.095 81.6649)" stroke="black" id="e1617_shape" style="vector-effect: non-scaling-stroke; stroke-width: 1px;" fill="gray"><path d="M96 16v24h24z"/><path d="M33.778 128h76.445c5.4 0 9.778-4.378 9.778-9.778v-70.222h-22.222c-5.4 0-9.778-4.378-9.778-9.778v-22.222h-54.222c-5.4 0-9.778 4.378-9.778 9.778v92.445c0 5.4 4.378 9.778 9.778 9.778z"/><path d="M80 0v8h8z"/><path d="M72 8v-8h-54.222c-5.4 0-9.778 4.378-9.778 9.778v92.445c0 4.792 3.45 8.772 8 9.609v-86.053c0-9.803 7.975-17.778 17.778-17.778h38.222z"/></g></svg>